<svg xmlns="http://www.w3.org/2000/svg" viewBox="0 0 1024 1024" role="img" aria-label="clihub logo">
  <title>clihub — eight-spoke hub</title>
  <rect width="1024" height="1024" rx="224" fill="#0a0e14"/>
  <g fill="#4fd6c4" transform="scale(16)">
    <rect x="27" y="27" width="10" height="10" rx="2"/>
    <rect x="29.75" y="8" width="4.5" height="12" rx="2"/>
    <rect x="29.75" y="8" width="4.5" height="12" rx="2" transform="rotate(45 32 32)"/>
    <rect x="29.75" y="8" width="4.5" height="12" rx="2" transform="rotate(90 32 32)"/>
    <rect x="29.75" y="8" width="4.5" height="12" rx="2" transform="rotate(135 32 32)"/>
    <rect x="29.75" y="8" width="4.5" height="12" rx="2" transform="rotate(180 32 32)"/>
    <rect x="29.75" y="8" width="4.5" height="12" rx="2" transform="rotate(225 32 32)"/>
    <rect x="29.75" y="8" width="4.5" height="12" rx="2" transform="rotate(270 32 32)"/>
    <rect x="29.75" y="8" width="4.5" height="12" rx="2" transform="rotate(315 32 32)"/>
  </g>
</svg>
